<svg width="161" height="32" viewBox="0 0 161 32" fill="none" xmlns="http://www.w3.org/2000/svg">
<g clip-path="url(#clip0_1286_3527)">
<path d="M92.3221 3.89123L93.388 3.49839L92.3221 3.10338C91.3723 2.75201 90.6238 2.00562 90.2714 1.05627L89.8797 -0.00219727L89.4857 1.06064C89.1355 2.00562 88.387 2.75201 87.4394 3.10338L86.3691 3.49839L87.435 3.89123C88.3848 4.24041 89.1333 4.9868 89.4835 5.93397L89.8775 6.9968L90.2714 5.93397C90.6216 4.9868 91.3701 4.24041 92.3199 3.89123" fill="#66E2D0"/>
<path d="M6.61614 13.2145C8.10876 13.2145 9.33438 13.9587 10.0063 15.1568H12.8887C12.0198 12.5358 9.64516 10.8029 6.61614 10.8029C2.79922 10.8029 0 13.5942 0 17.4004C0 21.2065 2.79922 23.9978 6.61614 23.9978C9.64297 23.9978 12.0176 22.265 12.8887 19.6461H9.99971C9.32781 20.8311 8.10439 21.5884 6.61614 21.5884C4.32686 21.5884 2.67009 19.8119 2.67009 17.4004C2.67009 14.9888 4.32686 13.2123 6.61614 13.2123" fill="#66E2D0"/>
<path d="M154.69 16.0145C152.138 16.0145 151.066 15.6348 151.066 14.6724C151.066 13.5571 152.274 12.9744 154.557 12.9744C156.651 12.9744 158.048 13.6837 158.048 14.7487H160.733C160.733 12.3154 158.262 10.6938 154.557 10.6938C150.53 10.6938 148.381 12.0884 148.381 14.6724C148.381 17.2563 150.206 18.2973 154.45 18.2973C157.135 18.2973 158.317 18.7273 158.317 19.7421C158.317 20.9337 157.001 21.5928 154.557 21.5928C152.3 21.5928 150.797 20.8835 150.797 19.8185H148.111C148.111 22.2519 150.69 23.8734 154.557 23.8734C158.746 23.8734 161 22.4287 161 19.7421C161 17.0556 159.12 16.0167 154.69 16.0167" fill="#66E2D0"/>
<path d="M37.8117 10.6567C34.2268 10.6567 31.3203 13.5855 31.3203 17.2018V23.7468H33.9598V17.2018C33.9598 15.0565 35.6844 13.3171 37.8117 13.3171C39.939 13.3171 41.6636 15.0565 41.6636 17.2018V23.7468H44.3031V17.2018C44.3031 13.5877 41.3966 10.6567 37.8117 10.6567Z" fill="#66E2D0"/>
<path d="M46.9434 12.922V21.6233C46.9434 22.7953 47.8954 23.7446 49.0707 23.7446H57.3983V21.4138H49.4865V18.437H57.383V16.1062H49.4865V13.1294H57.3983V10.7986H49.0707C47.8954 10.7986 46.9434 11.7479 46.9434 12.9199" fill="#66E2D0"/>
<path d="M83.2105 19.6177V14.5218C83.2105 12.4768 81.5318 10.8029 79.4811 10.8029H75.3184V13.221H79.4811C80.0786 13.221 80.5644 13.7033 80.5644 14.3013V20.2746C80.5644 22.1929 82.1227 23.7468 84.0465 23.7468H88.1173V21.1148H84.7118C83.8823 21.1148 83.2105 20.4448 83.2105 19.6177Z" fill="#66E2D0"/>
<path d="M82.9182 7.46601V3.49838H80.5195V7.46601C80.5195 9.37999 82.0822 10.9382 84.0016 10.9382H88.1643V8.5463H84.0016C83.4041 8.5463 82.9182 8.06181 82.9182 7.46601Z" fill="#66E2D0"/>
<path d="M22.1041 21.1869C19.9877 21.1869 18.2697 19.4737 18.2697 17.3633C18.2697 15.2529 19.9877 13.5375 22.1041 13.5375C24.2205 13.5375 25.9407 15.2507 25.9407 17.3633C25.9407 19.4758 24.2227 21.1869 22.1041 21.1869ZM22.1041 10.8051C18.4732 10.8051 15.5273 13.7426 15.5273 17.3633C15.5273 20.9839 18.4754 23.9236 22.1041 23.9236C25.7328 23.9236 28.6852 20.9861 28.6852 17.3633C28.6852 13.7405 25.7372 10.8051 22.1041 10.8051Z" fill="#66E2D0"/>
<path d="M138.893 21.1869C136.777 21.1869 135.059 19.4737 135.059 17.3633C135.059 15.2529 136.777 13.5375 138.893 13.5375C141.01 13.5375 142.73 15.2507 142.73 17.3633C142.73 19.4758 141.012 21.1869 138.893 21.1869ZM138.893 10.8051C135.262 10.8051 132.314 13.7426 132.314 17.3633C132.314 20.9839 135.262 23.9236 138.893 23.9236C142.524 23.9236 145.475 20.9861 145.475 17.3633C145.475 13.7405 142.526 10.8051 138.893 10.8051Z" fill="#66E2D0"/>
<path d="M66.7562 10.8051C66.7277 10.8029 66.6993 10.8029 66.6708 10.8029C62.8517 10.8029 60.0547 13.5942 60.0547 17.4004C60.0547 21.2065 62.8539 23.9978 66.6708 23.9978C69.6955 23.9978 72.0701 22.265 72.9412 19.6439H70.0544C69.3825 20.8289 68.1569 21.584 66.6708 21.584C64.3794 21.584 62.7226 19.8076 62.7226 17.3982C62.7226 14.9888 64.3794 13.2079 66.6708 13.2079C66.6993 13.2079 66.7277 13.2079 66.7562 13.2101V13.2058H72.9412V10.7986H66.7562V10.8051Z" fill="#66E2D0"/>
<path d="M93.409 18.4654V17.1996C93.409 15.0543 95.1336 13.3149 97.2609 13.3149C99.3882 13.3149 101.113 15.0543 101.113 17.1996V18.4654H93.409ZM97.2609 10.6567C93.676 10.6567 90.7695 13.5855 90.7695 17.2018V23.7468H93.409V21.1083H101.113V23.7468H103.752V17.2018C103.752 13.5877 100.846 10.6567 97.2609 10.6567Z" fill="#66E2D0"/>
<path d="M123.229 10.6567C121.115 10.6567 119.244 11.6803 118.058 13.2582C116.871 11.6803 115 10.6567 112.886 10.6567C109.301 10.6567 106.395 13.5855 106.395 17.2018V23.7468H109.034V17.2018C109.034 15.0565 110.759 13.3171 112.886 13.3171C115.013 13.3171 116.736 15.0543 116.738 17.1974C116.738 17.1974 116.738 17.1974 116.738 17.1996V23.7447H119.377V17.1996C119.377 17.1996 119.377 17.1974 119.377 17.1952C119.377 15.0521 121.102 13.3149 123.229 13.3149C125.357 13.3149 127.081 15.0543 127.081 17.1996V23.7447H129.721V17.1996C129.721 13.5855 126.814 10.6545 123.229 10.6545" fill="#66E2D0"/>
</g>
<defs>
<clipPath id="clip0_1286_3527">
<rect width="161" height="24" fill="white"/>
</clipPath>
</defs>
</svg>
