<?xml version="1.0" encoding="UTF-8"?>
<svg id="Layer_1" data-name="Layer 1" xmlns="http://www.w3.org/2000/svg" viewBox="0 0 1510.59 837.73">
  <defs>
    <style>
      .cls-1 {
        fill: #1e2722;
      }
    </style>
  </defs>
  <g>
    <g>
      <path class="cls-1" d="M298.5,793.61h4.96v25.99h17.11v3.3h-22.06v-29.29Z"/>
      <path class="cls-1" d="M338.03,808.25c0-9.57,6.68-15.34,16.95-15.34s16.9,5.77,16.9,15.34-6.68,15.35-16.9,15.35-16.95-5.98-16.95-15.35ZM366.67,808.25c0-7.51-4.28-12.04-11.68-12.04s-11.74,4.54-11.74,12.04,4.33,12.05,11.74,12.05,11.68-4.58,11.68-12.05Z"/>
      <path class="cls-1" d="M392.23,808.25c0-8.95,6.1-15.34,17.05-15.34,10.22,0,13.51,5.61,14.14,8.87l-4.9.54c-.52-2.47-2.77-6.1-9.39-6.1-7.56,0-11.84,4.95-11.84,12.09,0,6.68,3.86,11.96,11.89,11.96,9.13,0,10.48-6.06,10.48-8.87v-.5h-10.85v-3.3h15.28v15.3h-3.6l-.68-4.7c-1.62,3.18-5.84,5.4-11.37,5.4-10.12,0-16.22-6.52-16.22-15.35Z"/>
      <path class="cls-1" d="M448.35,822.9v-29.29h4.96v29.29h-4.96Z"/>
      <path class="cls-1" d="M475.73,814.19l5.01-.58c.68,3.59,3.49,6.77,10.01,6.77,4.02,0,8.24-1.32,8.24-5.03,0-3.47-2.71-4.58-7.04-5.28l-5.37-.87c-5.27-.87-9.28-3.05-9.28-8.09s5.01-8.21,12.88-8.21c7.35,0,12.99,2.6,13.72,8.33l-4.96.82c-.62-3.92-3.39-6.06-8.87-6.06-4.54,0-7.67,1.77-7.67,4.74s1.93,4.33,6.05,5.03l5.42.91c5.74.95,10.22,2.97,10.22,8.29,0,4.54-4.28,8.62-13.51,8.62s-14.24-4.04-14.86-9.41Z"/>
      <path class="cls-1" d="M549.27,796.91h-11.63v25.99h-4.96v-25.99h-11.63v-3.3h28.22v3.3Z"/>
      <path class="cls-1" d="M570.66,822.9v-29.29h4.96v29.29h-4.96Z"/>
      <path class="cls-1" d="M598.82,808.17c0-8.99,5.84-15.26,16.85-15.26,9.02,0,13.72,4.21,14.66,10.27l-5.06.41c-.73-4.41-4.12-7.34-9.86-7.34-7.25,0-11.37,4.78-11.37,11.88s3.91,12.04,11.48,12.04c5.27,0,8.97-2.76,10.01-7.14l4.8.66c-1.41,5.53-5.89,9.9-14.81,9.9-11.48,0-16.69-6.93-16.69-15.43Z"/>
      <path class="cls-1" d="M672.62,814.44h-15.12l-3.81,8.46h-5.11l14.03-29.29h4.9l14.03,29.29h-5.11l-3.81-8.46ZM671.16,811.14l-5.16-11.43c-.31-.66-.63-1.36-.89-2.23h-.1c-.26.87-.57,1.57-.89,2.23l-5.16,11.43h12.21Z"/>
      <path class="cls-1" d="M729.95,822.9v-29.29h6.73v29.29h-6.73Z"/>
      <path class="cls-1" d="M761.5,793.61h7.72l13.92,19.18c.99,1.32,1.77,2.6,2.3,3.75h.11c-.05-1.07-.11-2.23-.11-3.79v-19.14h6.1v29.29h-7.56l-14.13-19.26c-.94-1.36-1.67-2.47-2.24-3.67h-.11c.11,1.11.11,2.27.11,3.88v19.06h-6.1v-29.29Z"/>
      <path class="cls-1" d="M841.4,797.94h-11.21v24.96h-6.73v-24.96h-11.21v-4.33h29.15v4.33Z"/>
      <path class="cls-1" d="M886.52,818.73v4.17h-24.41v-29.29h24.05v4.17h-17.32v8.04h16.43v4.12h-16.43v8.79h17.68Z"/>
      <path class="cls-1" d="M909.78,793.61h6.73v24.91h16.17v4.37h-22.9v-29.29Z"/>
      <path class="cls-1" d="M954.01,822.9v-29.29h6.73v29.29h-6.73Z"/>
      <path class="cls-1" d="M982.96,808.29c0-9.07,6.52-15.39,17.63-15.39,10.01,0,14.18,4.91,15.07,8.91l-6.68.91c-.57-2.6-2.82-5.61-8.5-5.61-6.78,0-10.64,4.46-10.64,11.14s3.55,11.06,10.69,11.06c7.51,0,9.44-4.87,9.44-7.55v-.54h-10.01v-4.08h16.12v15.76h-4.8l-.57-4.5c-1.72,3.13-5.89,5.2-11.42,5.2-10.22,0-16.33-6.27-16.33-15.3Z"/>
      <path class="cls-1" d="M1063.8,818.73v4.17h-24.41v-29.29h24.05v4.17h-17.32v8.04h16.43v4.12h-16.43v8.79h17.68Z"/>
      <path class="cls-1" d="M1087.06,793.61h7.72l13.92,19.18c.99,1.32,1.77,2.6,2.3,3.75h.11c-.05-1.07-.11-2.23-.11-3.79v-19.14h6.1v29.29h-7.56l-14.14-19.26c-.94-1.36-1.67-2.47-2.24-3.67h-.11c.11,1.11.11,2.27.11,3.88v19.06h-6.1v-29.29Z"/>
      <path class="cls-1" d="M1166.97,797.94h-11.22v24.96h-6.73v-24.96h-11.21v-4.33h29.16v4.33Z"/>
      <path class="cls-1" d="M1212.09,818.73v4.17h-24.41v-29.29h24.04v4.17h-17.32v8.04h16.43v4.12h-16.43v8.79h17.68Z"/>
    </g>
    <g>
      <path class="cls-1" d="M862.48,554.14l9.67-3.57-9.67-3.58c-8.61-3.19-15.4-9.99-18.59-18.6l-3.56-9.63-3.57,9.66c-3.18,8.6-9.95,15.38-18.55,18.57l-9.7,3.59,9.67,3.57c8.61,3.18,15.39,9.97,18.58,18.58l3.57,9.67,3.57-9.67c3.18-8.61,9.97-15.39,18.58-18.58Z"/>
      <path class="cls-1" d="M85.46,638.89c13.53,0,24.65,6.77,30.74,17.67h26.12c-7.87-23.82-29.41-39.59-56.86-39.59-34.61,0-59.99,25.37-59.99,59.99s25.38,59.99,59.99,59.99c27.45,0,48.97-15.76,56.86-39.56h-26.18c-6.09,10.77-17.19,17.65-30.68,17.65-20.76,0-35.77-16.16-35.77-38.07s15.02-38.07,35.77-38.07Z"/>
      <path class="cls-1" d="M1427.91,664.35c-23.13,0-32.86-3.46-32.86-12.21,0-10.14,10.95-15.44,31.65-15.44,18.99,0,31.65,6.45,31.65,16.13h24.34c0-22.12-22.4-36.87-55.99-36.87-36.51,0-55.99,12.67-55.99,36.18s16.55,32.95,55.01,32.95c24.34,0,35.06,3.92,35.06,13.13,0,10.83-11.93,16.82-34.08,16.82-20.45,0-34.08-6.45-34.08-16.13h-24.34c0,22.12,23.37,36.87,58.43,36.87,37.97,0,58.42-13.14,58.42-37.56s-17.04-33.87-57.21-33.87Z"/>
      <path class="cls-1" d="M368.29,615.64c-32.5,0-58.85,26.64-58.85,59.5v59.5h23.92v-59.5c0-19.5,15.64-35.31,34.92-35.31s34.92,15.81,34.92,35.31v59.5h23.92v-59.5c0-32.86-26.35-59.5-58.85-59.5Z"/>
      <path class="cls-1" d="M451.06,636.24v79.11c0,10.65,8.64,19.29,19.29,19.29h75.5v-21.18h-71.72v-27.07h71.59v-21.18h-71.59v-27.07h71.72v-21.19h-75.5c-10.66,0-19.29,8.64-19.29,19.29Z"/>
      <path class="cls-1" d="M779.87,697.11v-46.33c0-18.59-15.21-33.8-33.8-33.8h-37.74v21.98h37.74c5.42,0,9.81,4.39,9.81,9.81v54.32c0,17.43,14.13,31.56,31.56,31.56h36.91v-23.92h-30.87c-7.51,0-13.61-6.09-13.61-13.61Z"/>
      <path class="cls-1" d="M777.21,586.63v-36.08h-21.75v36.08c0,17.4,14.16,31.56,31.56,31.56h37.74v-21.75h-37.74c-5.41,0-9.81-4.4-9.81-9.81Z"/>
      <path class="cls-1" d="M225.87,616.99c-32.91,0-59.64,26.7-59.64,59.64s26.72,59.64,59.64,59.64,59.66-26.7,59.66-59.64-26.72-59.64-59.66-59.64ZM225.87,711.38c-19.19,0-34.76-15.57-34.76-34.76s15.57-34.78,34.76-34.78,34.78,15.57,34.78,34.78-15.57,34.76-34.78,34.76Z"/>
      <path class="cls-1" d="M1284.69,616.99c-32.91,0-59.64,26.7-59.64,59.64s26.72,59.64,59.64,59.64,59.66-26.7,59.66-59.64-26.72-59.64-59.66-59.64ZM1284.69,711.38c-19.19,0-34.76-15.57-34.76-34.76s15.57-34.78,34.76-34.78,34.78,15.57,34.78,34.78-15.57,34.76-34.78,34.76Z"/>
      <path class="cls-1" d="M630.7,617c-.26-.02-.52-.02-.78-.02-34.61,0-59.99,25.38-59.99,59.99s25.38,59.99,59.99,59.99c27.43,0,48.96-15.76,56.85-39.58h-26.18c-6.1,10.77-17.2,17.65-30.67,17.65-20.77,0-35.8-16.16-35.8-38.06s15.03-38.09,35.8-38.09c.26,0,.52,0,.78.02v-.05h56.07v-21.88h-56.07v.02Z"/>
      <path class="cls-1" d="M907.26,615.64c-32.5,0-58.85,26.64-58.85,59.5v59.5h23.92v-24h69.84v24h23.92v-59.5c0-32.86-26.35-59.5-58.85-59.5ZM872.34,686.64v-11.51c0-19.5,15.64-35.31,34.92-35.31s34.92,15.81,34.92,35.31v11.51h-69.84Z"/>
      <path class="cls-1" d="M1142.68,615.64c-19.16,0-36.14,9.31-46.88,23.65-10.74-14.34-27.72-23.65-46.88-23.65-32.5,0-58.85,26.64-58.85,59.5v59.5h23.92v-59.5c0-19.5,15.64-35.31,34.92-35.31s34.91,15.8,34.92,35.28c0,0,0,.02,0,.03v59.5h23.93v-59.5s0-.02,0-.03c.02-19.49,15.64-35.28,34.92-35.28s34.92,15.81,34.92,35.31v59.5h23.92v-59.5c0-32.86-26.35-59.5-58.85-59.5Z"/>
    </g>
  </g>
  <g>
    <path class="cls-1" d="M1019.54,73.84c-14.51-5.38-25.94-16.82-31.3-31.33l-10.49-28.38-10.5,28.42c-5.35,14.48-16.76,25.9-31.24,31.27l-28.52,10.57,28.46,10.52c14.5,5.36,25.93,16.79,31.29,31.29l10.52,28.46,10.52-28.46c5.36-14.5,16.79-25.93,31.29-31.29l28.46-10.52-28.47-10.55Z"/>
    <path class="cls-1" d="M872.91,404.61v-113.2c0-41.06-33.59-74.66-74.66-74.66h-201.47v.05c-.58-.05-1.15-.05-1.72-.05-76.44,0-132.49,56.04-132.49,132.49s56.04,132.49,132.49,132.49c60.58,0,108.12-34.8,125.55-87.4h-57.82c-13.46,23.79-37.99,38.98-67.73,38.98-45.87,0-79.05-35.69-79.05-84.06s33.19-84.12,79.05-84.12c.57,0,1.15,0,1.72.05v-.1h207.17c11.97,0,21.67,9.7,21.67,21.67v125c0,38.5,31.21,69.71,69.71,69.71h81.51v-46.79h-73.87c-16.6,0-30.05-13.45-30.05-30.05Z"/>
    <path class="cls-1" d="M872.74,164.94v-80.57h-48.03v79.67c0,38.43,31.27,69.7,69.7,69.7h83.34v-47.14h-83.34c-11.95,0-21.67-9.72-21.67-21.67Z"/>
  </g>
</svg>