<svg xmlns="http://www.w3.org/2000/svg" viewBox="0 0 32 32">
  <rect width="32" height="32" rx="6" fill="#0F2937"/>
  <g transform="translate(2.01,4.82) scale(0.0497)" fill="#2DD4BF">
    <path d="M522.81,65.92c-13.24-4.91-23.68-15.36-28.58-28.61l-9.58-25.91-9.59,25.95c-4.89,13.22-15.3,23.65-28.52,28.55l-26.04,9.65,25.98,9.6c13.24,4.89,23.67,15.33,28.56,28.56l9.6,25.98,9.6-25.98c4.89-13.24,15.33-23.67,28.56-28.56l25.98-9.6-25.99-9.63Z"/>
    <path d="M388.92,367.93v-103.35c0-37.49-30.67-68.16-68.16-68.16h-183.94v.05c-.53-.05-1.05-.05-1.57-.05-69.8,0-120.96,51.17-120.96,120.96s51.17,120.96,120.96,120.96c55.31,0,98.71-31.78,114.63-79.8h-52.79c-12.29,21.73-34.68,35.59-61.84,35.59-41.88,0-72.18-32.59-72.18-76.75s30.3-76.8,72.18-76.8c.52,0,1.05,0,1.57.05v-.09h189.15c10.93,0,19.78,8.86,19.78,19.78v114.13c0,35.15,28.49,63.64,63.64,63.64h74.42v-42.72h-67.45c-15.15,0-27.44-12.28-27.44-27.44Z"/>
    <path d="M388.77,149.11v-73.56h-43.85v72.74c0,35.09,28.55,63.64,63.64,63.64h76.09v-43.04h-76.09c-10.91,0-19.78-8.87-19.78-19.78Z"/>
  </g>
</svg>
